<svg viewBox="0 0 700 220" xmlns="http://www.w3.org/2000/svg" role="img" aria-label="Illustration of a park with trees, a bench with a parent and child, and kids on a seesaw">
  <rect width="700" height="220" fill="#FAF7F2"/>
  <circle cx="630" cy="50" r="30" fill="#F4D06F"/>
  <path d="M0 175 Q 175 150 350 168 T 700 160 L700 220 L0 220 Z" fill="#C8E8D4"/>
  <path d="M0 190 Q 200 172 400 188 T 700 182 L700 220 L0 220 Z" fill="#9FD9B4"/>
  <g transform="translate(20,110) scale(0.8)">
    <rect x="-6" y="46" width="12" height="30" rx="3" fill="#C4A882"/>
    <circle cx="0" cy="24" r="26" fill="#7BC84A"/>
    <circle cx="-19" cy="36" r="16" fill="#4CAF82"/>
    <circle cx="19" cy="36" r="16" fill="#4CAF82"/>
  </g>
  <g transform="translate(95,60) scale(1.4)">
    <rect x="-6" y="46" width="12" height="30" rx="3" fill="#C4A882"/>
    <circle cx="0" cy="24" r="26" fill="#7BC84A"/>
    <circle cx="-19" cy="36" r="16" fill="#4CAF82"/>
    <circle cx="19" cy="36" r="16" fill="#4CAF82"/>
  </g>
  <g transform="translate(220,150)">
    <rect x="0" y="18" width="60" height="8" rx="2" fill="#7B4F2E"/>
    <rect x="0" y="30" width="60" height="8" rx="2" fill="#7B4F2E"/>
    <rect x="4" y="26" width="6" height="26" fill="#5C3A1E"/>
    <rect x="50" y="26" width="6" height="26" fill="#5C3A1E"/>
    <g transform="translate(16,14)">
      <circle cx="0" cy="0" r="12" fill="#D98A4A"/>
      <rect x="-9" y="10" width="18" height="23" rx="7" fill="#9B6FD4"/>
    </g>
    <g transform="translate(42,20)">
      <circle cx="0" cy="0" r="9" fill="#E0836A"/>
      <rect x="-7" y="8" width="14" height="18" rx="6" fill="#7BC84A"/>
    </g>
  </g>
  <g transform="translate(420,170)">
    <path d="M-8 0 L8 0 L0 -20 Z" fill="#7B4F2E"/>
    <rect x="-70" y="-28" width="140" height="9" rx="4" fill="#F4D06F" transform="rotate(-14 0 -24)"/>
    <g transform="translate(-63,-16)">
      <circle cx="0" cy="0" r="9" fill="#D98A4A"/>
      <rect x="-7" y="8" width="14" height="18" rx="6" fill="#5B9BD5"/>
    </g>
    <g transform="translate(64,-47)">
      <circle cx="0" cy="0" r="9" fill="#E0836A"/>
      <rect x="-7" y="8" width="14" height="18" rx="6" fill="#E85D75"/>
    </g>
  </g>
  <g transform="translate(560,90) scale(1.1)">
    <rect x="-6" y="46" width="12" height="30" rx="3" fill="#C4A882"/>
    <circle cx="0" cy="24" r="26" fill="#4CAF82"/>
    <circle cx="-19" cy="36" r="16" fill="#7BC84A"/>
    <circle cx="19" cy="36" r="16" fill="#7BC84A"/>
  </g>
  <circle cx="660" cy="150" r="6" fill="#9B6FD4"/>
  <circle cx="20" cy="30" r="5" fill="#5B9BD5"/>
</svg>
